<?xml version="1.0" encoding="UTF-8" standalone="no"?>
<svg
   xmlns:dc="http://purl.org/dc/elements/1.1/"
   xmlns:cc="http://creativecommons.org/ns#"
   xmlns:rdf="http://www.w3.org/1999/02/22-rdf-syntax-ns#"
   xmlns:svg="http://www.w3.org/2000/svg"
   xmlns="http://www.w3.org/2000/svg"
   xmlns:sodipodi="http://sodipodi.sourceforge.net/DTD/sodipodi-0.dtd"
   xmlns:inkscape="http://www.inkscape.org/namespaces/inkscape"
   fill="#000000"
   data-name="Layer 1"
   viewBox="0 0 100 100"
   x="0px"
   y="0px"
   version="1.1"
   id="svg6"
   sodipodi:docname="743869-pause.svg"
   inkscape:version="0.92.1 r15371"
   inkscape:export-filename="/home/alexandre/Software/speech-rec/webex/abr/popup/img/pause.png"
   inkscape:export-xdpi="38.400002"
   inkscape:export-ydpi="38.400002">
  <metadata
     id="metadata12">
    <rdf:RDF>
      <cc:Work
         rdf:about="">
        <dc:format>image/svg+xml</dc:format>
        <dc:type
           rdf:resource="http://purl.org/dc/dcmitype/StillImage" />
      </cc:Work>
    </rdf:RDF>
  </metadata>
  <defs
     id="defs10" />
  <sodipodi:namedview
     pagecolor="#ffffff"
     bordercolor="#666666"
     borderopacity="1"
     objecttolerance="10"
     gridtolerance="10"
     guidetolerance="10"
     inkscape:pageopacity="0"
     inkscape:pageshadow="2"
     inkscape:window-width="1920"
     inkscape:window-height="1023"
     id="namedview8"
     showgrid="false"
     inkscape:zoom="6.675088"
     inkscape:cx="71.078201"
     inkscape:cy="51.238933"
     inkscape:window-x="0"
     inkscape:window-y="0"
     inkscape:window-maximized="1"
     inkscape:current-layer="svg6" />
  <title
     id="title2">music-base</title>
  <path
     d="M 49.96365,0.27938128 A 49.684268,49.684268 0 1 0 99.647918,49.96365 49.684268,49.684268 0 0 0 49.96365,0.27938128 Z M 41.755394,69.340514 a 3.3950917,3.3950917 0 0 1 -3.395092,3.395092 H 32.522401 A 3.3950917,3.3950917 0 0 1 29.12731,69.340514 V 30.586785 a 3.3950917,3.3950917 0 0 1 3.395091,-3.395092 h 5.837901 a 3.3950917,3.3950917 0 0 1 3.395092,3.395092 z m 29.044596,0 a 3.3950917,3.3950917 0 0 1 -3.395092,3.395092 H 61.566996 A 3.3950917,3.3950917 0 0 1 58.171905,69.340514 V 30.586785 a 3.3950917,3.3950917 0 0 1 3.395091,-3.395092 h 5.837902 a 3.3950917,3.3950917 0 0 1 3.395092,3.395092 z"
     id="path4"
     inkscape:connector-curvature="0"
     style="stroke-width:1.0350889" />
</svg>
