<?xml version="1.0" encoding="UTF-8" standalone="no"?>
<svg
   xmlns:dc="http://purl.org/dc/elements/1.1/"
   xmlns:cc="http://creativecommons.org/ns#"
   xmlns:rdf="http://www.w3.org/1999/02/22-rdf-syntax-ns#"
   xmlns:svg="http://www.w3.org/2000/svg"
   xmlns="http://www.w3.org/2000/svg"
   xmlns:sodipodi="http://sodipodi.sourceforge.net/DTD/sodipodi-0.dtd"
   xmlns:inkscape="http://www.inkscape.org/namespaces/inkscape"
   fill="#000000"
   version="1.1"
   x="0px"
   y="0px"
   viewBox="0 0 100 100"
   style="enable-background:new 0 0 100 100;"
   xml:space="preserve"
   id="svg4"
   sodipodi:docname="860179-play.svg"
   inkscape:version="0.92.1 r15371"
   inkscape:export-filename="/home/alexandre/Software/speech-rec/player-react/src/img/status/play300.png"
   inkscape:export-xdpi="288"
   inkscape:export-ydpi="288"><metadata
     id="metadata10"><rdf:RDF><cc:Work
         rdf:about=""><dc:format>image/svg+xml</dc:format><dc:type
           rdf:resource="http://purl.org/dc/dcmitype/StillImage" /></cc:Work></rdf:RDF></metadata><defs
     id="defs8" /><sodipodi:namedview
     pagecolor="#ffffff"
     bordercolor="#666666"
     borderopacity="1"
     objecttolerance="10"
     gridtolerance="10"
     guidetolerance="10"
     inkscape:pageopacity="0"
     inkscape:pageshadow="2"
     inkscape:window-width="1920"
     inkscape:window-height="1023"
     id="namedview6"
     showgrid="false"
     inkscape:zoom="6.675088"
     inkscape:cx="1.6364496"
     inkscape:cy="49.532484"
     inkscape:window-x="0"
     inkscape:window-y="0"
     inkscape:window-maximized="1"
     inkscape:current-layer="svg4" /><path
     d="m 50.074905,0.21741019 c -27.421622,0 -49.85749481,22.43587281 -49.85749481,49.85749481 0,27.421622 22.43587281,49.857496 49.85749481,49.857496 27.421622,0 49.857496,-22.435874 49.857496,-49.857496 0,-27.421622 -22.435874,-49.85749481 -49.857496,-49.85749481 z M 73.618723,52.013808 39.549434,71.402834 c -0.553972,0.276986 -0.969451,0.553972 -1.661917,0.553972 -0.692464,0 -1.523423,-0.276986 -1.938901,-0.553972 -0.969452,-0.692466 -1.661917,-1.938903 -1.661917,-3.18534 V 29.439442 c 0,-1.246438 0.553972,-2.492875 1.661917,-3.185339 1.246437,-0.692466 2.492874,-0.692466 3.600818,0 l 34.069289,19.389026 c 1.246437,0.692464 1.938902,1.938901 1.938902,3.185339 0,1.246437 -0.692465,2.492874 -1.938902,3.18534 z"
     id="path2"
     inkscape:connector-curvature="0"
     style="stroke-width:1.38493037" /></svg>