<svg xmlns:dc="http://purl.org/dc/elements/1.1/" xmlns:cc="http://creativecommons.org/ns#" xmlns:rdf="http://www.w3.org/1999/02/22-rdf-syntax-ns#" xmlns:svg="http://www.w3.org/2000/svg" xmlns="http://www.w3.org/2000/svg" xmlns:sodipodi="http://sodipodi.sourceforge.net/DTD/sodipodi-0.dtd" xmlns:inkscape="http://www.inkscape.org/namespaces/inkscape" version="1.1" x="0px" y="0px" viewBox="0 0 70 70"><g transform="translate(0,-982.36218)"><path style="text-indent:0;text-transform:none;direction:ltr;block-progression:tb;baseline-shift:baseline;color:#000000;enable-background:accumulate;" d="m 51.3669,997.28616 c -7.4197,2.0529 -14.9423,4.27354 -22.3826,6.42044 -1.0903,0.3987 -2.1242,1.2069 -1.9688,2.625 -4e-4,6.4264 -0.031,12.7566 -0.031,19.1875 -1.2147,-0.2096 -2.5514,0.021 -3.5938,0.3435 -1.726,0.5415 -3.2244,1.5113 -4.375,2.7188 -1.1504,1.2073 -2.0312,2.687 -2.0312,4.4375 0,1.7504 1.1973,3.3399 2.6875,3.9687 1.4902,0.6289 3.1801,0.573 4.9063,0.031 1.7261,-0.5414 3.2244,-1.5115 4.375,-2.7188 1.1504,-1.2074 2.0312,-2.6871 2.0312,-4.4375 -0.028,-4.1673 0,-13.0188 0,-17.2814 l 18,-5.2187 0,12.1564 c -1.2147,-0.2096 -2.5514,0.021 -3.5938,0.3435 -1.726,0.5415 -3.2244,1.5113 -4.375,2.7188 -1.1504,1.2073 -2.0312,2.687 -2.0312,4.4375 0,1.7504 1.1973,3.3399 2.6875,3.9687 1.4902,0.6289 3.1801,0.573 4.9063,0.031 1.7261,-0.5414 3.2244,-1.5115 4.375,-2.7188 1.1504,-1.2074 2.0312,-2.6871 2.0312,-4.4375 -0.028,-8.7061 0.03,-17.8295 0.031,-25.03124 -0.1657,-1.066 -0.8307,-1.5934 -1.6486,-1.5454 z" fill="#000000" fill-opacity="1" stroke="none" marker="none" visibility="visible" display="inline" overflow="visible"></path></g></svg>