<svg xmlns="http://www.w3.org/2000/svg" xmlns:xlink="http://www.w3.org/1999/xlink" version="1.1" preserveAspectRatio="none" x="0px" y="0px" viewBox="0 0 100 100"><defs><g id="a"><path fill="#000000" stroke="none" d=" M 90.6 41 L 87 37.1 77.25 46.4 67.4 37.1 63.8 41 73.35 50 63.8 59 67.4 62.9 77.25 53.6 87 62.9 90.6 59 81.1 50 90.6 41 M 15.6 32.15 Q 13.05 32.15 11.2 34 9.4 35.75 9.4 38.35 L 9.4 61.6 Q 9.4 64.2 11.2 66.05 13.05 67.8 15.6 67.8 L 27.95 67.8 55.35 88.75 55.35 11.25 27.95 32.15 15.6 32.15 Z"/></g></defs><g transform="matrix( 1, 0, 0, 1, 0,0) "><use xlink:href="#a"/></g></svg>