<svg fill="#000000" xmlns="http://www.w3.org/2000/svg" viewBox="0 0 24 24" enable-background="new 0 0 24 24" x="0px" y="0px"><g><path d="M23 2h-22c-.552 0-1-.448-1-1s.448-1 1-1h22c.553 0 1 .448 1 1s-.447 1-1 1zM23 7h-22c-.552 0-1-.448-1-1s.448-1 1-1h22c.553 0 1 .448 1 1s-.447 1-1 1zM13 12h-12c-.552 0-1-.448-1-1s.448-1 1-1h12c.553 0 1 .448 1 1s-.447 1-1 1zM8 17h-7c-.552 0-1-.447-1-1s.448-1 1-1h7c.552 0 1 .447 1 1s-.448 1-1 1zM23 17h-10c-.552 0-1-.447-1-1s.448-1 1-1h10c.553 0 1 .447 1 1s-.447 1-1 1zM18 22c-.553 0-1-.447-1-1v-10c0-.552.447-1 1-1s1 .448 1 1v10c0 .553-.447 1-1 1z"/></g></svg>