<svg width="200" height="200" fill="#000000" xmlns="http://www.w3.org/2000/svg" xmlns:xlink="http://www.w3.org/1999/xlink" version="1.1" x="0px" y="0px" viewBox="0 0 100 100" style="enable-background:new 0 0 100 100;" xml:space="preserve"><path d="M73.5,21.7c-0.6-0.5-1.4-0.6-2.1-0.5l-5.2,1.3c-5.3,1.3-10.9,1-16.1-0.9L50,21.6c-5.6-2.1-11.7-2.5-17.5-1.4  l-2,0.4V20c0-1.4-1.1-2.5-2.5-2.5s-2.5,1.1-2.5,2.5v3.7v28V80c0,1.4,1.1,2.5,2.5,2.5s2.5-1.1,2.5-2.5V53.7l2.9-0.6  c5-1,10.1-0.6,14.8,1.2l0.2,0.1c3.6,1.3,7.4,2,11.2,2c2.6,0,5.3-0.3,7.9-1l5.2-1.3c1.1-0.3,1.9-1.3,1.9-2.4v-28  C74.5,22.9,74.1,22.2,73.5,21.7z"/></svg>