<svg fill="#000000" xmlns="http://www.w3.org/2000/svg" xmlns:xlink="http://www.w3.org/1999/xlink" version="1.1" x="0px" y="0px" viewBox="0 0 48 48" enable-background="new 0 0 48 48" xml:space="preserve"><path d="M45.3,28.4v-7.1C45.3,9.6,35.8,0,24,0C12.2,0,2.7,9.6,2.7,21.3v7.1C1,30.2,0,32.6,0,35.3c0,5.3,4.1,9.6,9.3,10  C9.6,46.8,11,48,12.7,48c1.9,0,3.5-1.6,3.5-3.5V26.1c0-1.9-1.6-3.5-3.5-3.5c-1.7,0-3,1.2-3.4,2.7c-0.9,0.1-1.8,0.3-2.6,0.6v-4.5  C6.7,11.8,14.4,4,24,4c9.6,0,17.3,7.8,17.3,17.3v4.5c-0.8-0.3-1.7-0.5-2.6-0.6c-0.4-1.6-1.8-2.7-3.4-2.7c-1.9,0-3.5,1.6-3.5,3.5  v18.4c0,1.9,1.6,3.5,3.5,3.5c1.7,0,3-1.2,3.4-2.7c5.2-0.4,9.3-4.7,9.3-10C48,32.6,47,30.2,45.3,28.4z"/></svg>