<?xml version="1.0" encoding="UTF-8" standalone="no"?>
<svg
   xmlns:dc="http://purl.org/dc/elements/1.1/"
   xmlns:cc="http://creativecommons.org/ns#"
   xmlns:rdf="http://www.w3.org/1999/02/22-rdf-syntax-ns#"
   xmlns:svg="http://www.w3.org/2000/svg"
   xmlns="http://www.w3.org/2000/svg"
   xmlns:sodipodi="http://sodipodi.sourceforge.net/DTD/sodipodi-0.dtd"
   xmlns:inkscape="http://www.inkscape.org/namespaces/inkscape"
   fill="#000000"
   version="1.1"
   x="0px"
   y="0px"
   viewBox="0 0 100 100"
   enable-background="new 0 0 100 100"
   xml:space="preserve"
   id="svg4"
   sodipodi:docname="info2_89674.svg"
   inkscape:export-filename="/home/alexandre/Software/speech-rec/webex/abr/popup/img/info2.png"
   inkscape:export-xdpi="19.200001"
   inkscape:export-ydpi="19.200001"
   inkscape:version="0.92.1 r15371"><metadata
     id="metadata10"><rdf:RDF><cc:Work
         rdf:about=""><dc:format>image/svg+xml</dc:format><dc:type
           rdf:resource="http://purl.org/dc/dcmitype/StillImage" /></cc:Work></rdf:RDF></metadata><defs
     id="defs8" /><sodipodi:namedview
     pagecolor="#ffffff"
     bordercolor="#666666"
     borderopacity="1"
     objecttolerance="10"
     gridtolerance="10"
     guidetolerance="10"
     inkscape:pageopacity="0"
     inkscape:pageshadow="2"
     inkscape:window-width="1920"
     inkscape:window-height="1023"
     id="namedview6"
     showgrid="false"
     inkscape:zoom="2.36"
     inkscape:cx="50.847458"
     inkscape:cy="50"
     inkscape:window-x="0"
     inkscape:window-y="0"
     inkscape:window-maximized="1"
     inkscape:current-layer="svg4" /><path
     d="M53.1,44.7h-6.2c-2.3,0-4.1,1.9-4.1,4.1v26.3c0,2.3,1.8,4.1,4.1,4.1h6.2c2.3,0,4.1-1.9,4.1-4.1V48.8  C57.1,46.5,55.3,44.7,53.1,44.7L53.1,44.7z M49.9,20.9c-4.7,0-8.4,3.8-8.4,8.5c0,4.7,3.8,8.5,8.4,8.5c4.7,0,8.5-3.8,8.5-8.5  C58.5,24.7,54.7,20.9,49.9,20.9L49.9,20.9z M50,5C25.2,5,5,25.2,5,50s20.2,45,45,45c24.8,0,45-20.2,45-45S74.8,5,50,5L50,5z   M50,88.3c-21.1,0-38.3-17.2-38.3-38.3c0-21,17.2-38.2,38.3-38.2C71,11.8,88.2,29,88.2,50C88.2,71.1,71,88.3,50,88.3z"
     id="path2" /></svg>