<svg xmlns="http://www.w3.org/2000/svg" xmlns:xlink="http://www.w3.org/1999/xlink" version="1.1" x="0px" y="0px" viewBox="0 0 100 100" enable-background="new 0 0 100 100" xml:space="preserve"><path d="M92.539,48.11c-0.856-2.066-3.228-3.054-5.291-2.191c-2.803,1.173-11.195,4.733-11.195,4.733  c0.158-0.96,0.091-1.97-0.269-2.95c-0.517-1.41-1.521-2.496-2.75-3.151c1.338-1.56,1.817-3.778,1.054-5.843  c-0.368-1.002-0.983-1.841-1.751-2.475c-1.327-0.946-2.511,0.203-2.886-0.704c-0.239-0.58,0.264-0.758,0.641-1.182  c1.519-1.627,2.056-4.012,1.149-6.202c-1.239-2.989-4.649-4.367-7.638-3.128l-17.561,7.273c-0.336,0.139-0.739-0.063-0.879-0.4  c-0.14-0.337,0.026-0.712,0.349-0.882c1.418-0.749,4.423-1.995,4.9-3.632c0.666-4.924-0.315-8.907-0.479-9.479  c-0.588-2.037-1.978-4.316-4.213-4.8c-3.161-0.683-6.025,0.435-6.751,4.4c-0.435,2.369-2.188,8.002-4.809,13.143  C30.74,37.355,29,40.745,28.995,40.753c-0.376,0.729-0.893,1.629-0.629,2.267c-0.088,0.771-0.607,7.213,2.783,15.399  c2.018,4.869,4.399,8.013,6.172,9.901c-3.585-0.118-6.952-3.194-9.209-8.643c-3.216-7.763-3.282-14.937-3.282-14.937  s-0.153-0.012-0.237-0.013c-1.184,0.004-2.547,0.627-2.593,2.038c-0.012,0.331-0.385,5.804,3.079,14.167  c1.764,4.259,4.207,7.38,7.064,9.029c2.359,1.36,5.31,1.565,7.93,0.83c1.643,1.217,3.735,1.223,5.764,0.75  c1.237-0.289,2.555-0.648,3.908-1.051c3.102-0.88,7.572-2.336,13.193-4.665c0.945-0.392,24.087-10.956,27.409-12.424  C92.394,52.498,93.394,50.177,92.539,48.11z"/></svg>