<svg xmlns="http://www.w3.org/2000/svg" xmlns:xlink="http://www.w3.org/1999/xlink" version="1.1" x="0px" y="0px" viewBox="0 0 100 100" enable-background="new 0 0 100 100" xml:space="preserve"><g><path d="M74.475,57.341c-0.512-0.248-1.044-0.22-1.044-0.847c0-0.983,1.531-0.375,2.396-1.756c0.466-0.88,0.713-1.889,0.671-2.957   c-0.086-2.2-1.377-4.066-3.21-4.996c0.885-1.075,1.397-2.463,1.335-3.963c-0.105-2.523-1.794-4.604-4.067-5.333   c0.171-0.444,0.279-0.919,0.308-1.419c0.148-2.58-1.809-4.885-4.392-4.949c-5.146-0.125-8.692-0.125-10.655-0.125   c-6.083,0-10.776,0.365-13.978,0.738c-1.404,0.146-2.768,0.317-4.022,0.524c-2.152,0.355-4.197,1.212-5.208,3.145   c-0.343,0.658-3.391,5.456-3.391,14.599c0,4.335,0.667,7.924,1.403,10.542c-2.918-1.687-4.626-5.67-4.626-11.215   c0-8.403,2.685-15.055,2.685-15.055s-0.138-0.07-0.215-0.103c-1.095-0.45-2.591-0.396-3.174,0.889   c-0.136,0.302-2.576,5.217-2.576,14.269c0,4.61,1.062,8.429,3.071,11.045c1.462,1.901,3.569,3.152,5.927,3.644   c0.296,0.684,1.53,2.603,2.156,3.131c0.006,0.005,3.04,2.472,8.769,7.365c4.388,3.749,8.194,8.284,9.501,10.306   c2.189,3.386,5.278,3.325,7.938,1.486c1.881-1.302,2.299-3.932,2.062-6.038c-0.067-0.59-0.68-4.629-3.181-8.922   c-1.067-1.33-4.319-1.296-5.916-1.446c-0.362-0.034-0.658-0.18-0.658-0.545c0-0.364,0.296-0.497,0.661-0.497H72.05   c3.237,0,5.859-2.785,5.859-6.022C77.909,60.467,76.501,58.264,74.475,57.341z"/></g></svg>