<svg xmlns="http://www.w3.org/2000/svg" xmlns:xlink="http://www.w3.org/1999/xlink" version="1.1" x="0px" y="0px" viewBox="0 0 100 100" enable-background="new 0 0 100 100" xml:space="preserve"><g><path d="M73.431,43.497c0-0.627,0.533-0.6,1.044-0.847c2.026-0.923,3.435-2.92,3.435-5.291c0-3.236-2.624-5.813-5.859-5.813H53.044   c-0.364,0-0.659-0.342-0.659-0.706c0-0.365,0.296-0.648,0.659-0.682c1.597-0.149,4.85-0.15,5.917-1.48   c2.501-4.294,3.118-8.35,3.185-8.94c0.237-2.107-0.174-4.745-2.055-6.047c-2.659-1.839-5.733-1.904-7.92,1.482   c-1.308,2.022-5.084,6.556-9.473,10.303c-5.729,4.893-8.635,7.359-8.642,7.364c-0.626,0.53-1.449,1.163-1.449,1.853v0   c-0.375,0.678-3.322,6.431-3.322,15.293c0,5.27,0.998,9.087,1.913,11.509c-3.266-1.48-5.2-5.611-5.2-11.509   c0-8.402,2.684-15.055,2.684-15.055s-0.138-0.07-0.215-0.103c-1.095-0.449-2.593-0.396-3.175,0.89   c-0.137,0.302-2.577,5.216-2.577,14.268c0,4.61,1.062,8.429,3.072,11.045c1.658,2.159,4.305,3.479,7.007,3.801   c1.052,1.753,2.983,2.56,5.038,2.898c1.254,0.206,2.609,0.378,4.014,0.524c3.202,0.373,7.89,0.739,13.974,0.739   c1.963,0,5.508,0,10.654-0.125c2.583-0.063,4.54-2.368,4.391-4.949c-0.028-0.5-0.136-0.976-0.308-1.418   c2.272-0.729,3.962-2.81,4.067-5.334c0.062-1.5-0.45-2.888-1.335-3.963c1.833-0.929,3.125-2.795,3.21-4.996   c0.042-1.066-0.205-2.077-0.671-2.956C74.963,43.871,73.431,44.479,73.431,43.497z"/></g></svg>