<svg xmlns="http://www.w3.org/2000/svg" xmlns:xlink="http://www.w3.org/1999/xlink" version="1.1" x="0px" y="0px" viewBox="0 0 100 100" enable-background="new 0 0 100 100" xml:space="preserve"><path d="M9.5,51.2c-4.3-4.6-6.8-10.5-6.8-16.9c0-14.9,13.8-27,30.7-27c11.5,0,21.6,5.6,26.8,13.8c0,0,0,0,0,0  c-22.8,0-41.6,15.8-43.5,35.8c0,0,0,0,0,0c-4.3,2.6-9,2.5-11.7,2.1c-0.8-0.1-1-1.1-0.3-1.5C7.2,55.7,8.7,53.3,9.5,51.2z M60.2,27.5  c20.5,0,37.2,14.6,37.2,32.6c0,7.8-3.1,14.9-8.3,20.5c1,2.6,2.7,5.5,5.9,7.6c0.8,0.5,0.6,1.7-0.4,1.9c-3.3,0.5-9,0.6-14.2-2.6  c-5.8,3.3-12.7,5.2-20.2,5.2C39.6,92.7,23,78.1,23,60.1S39.6,27.5,60.2,27.5z M49.9,57.2l-3.6-0.3l-1.4-3.3c-0.3-0.6-1.1-0.6-1.4,0  l-1.4,3.3l-3.6,0.3c-0.7,0-0.9,0.9-0.4,1.3l2.7,2.3L40,64.3c-0.2,0.7,0.6,1.2,1.1,0.8l3.1-1.9l3.1,1.9c0.6,0.4,1.3-0.2,1.1-0.8  l-0.9-3.5l2.7-2.3C50.8,58.1,50.5,57.2,49.9,57.2z M70.1,58.5l2.7,2.3L72,64.3c-0.2,0.7,0.6,1.2,1.1,0.8l3.1-1.9l3.1,1.9  c0.6,0.4,1.3-0.2,1.1-0.8l-0.9-3.5l2.7-2.3c0.5-0.4,0.2-1.3-0.4-1.3l-3.6-0.3l-1.4-3.3c-0.3-0.6-1.1-0.6-1.4,0l-1.4,3.3l-3.6,0.3  C69.8,57.2,69.6,58.1,70.1,58.5z M59.5,53.6l-1.4,3.3l-3.6,0.3c-0.7,0-0.9,0.9-0.4,1.3l2.7,2.3L56,64.3c-0.2,0.7,0.6,1.2,1.1,0.8  l3.1-1.9l3.1,1.9c0.6,0.4,1.3-0.2,1.1-0.8l-0.9-3.5l2.7-2.3c0.5-0.4,0.2-1.3-0.4-1.3l-3.6-0.3l-1.4-3.3C60.6,53,59.7,53,59.5,53.6z"/></svg>