<svg fill="#000000" xmlns="http://www.w3.org/2000/svg" data-name="Layer 1" viewBox="0 0 100 100" x="0px" y="0px"><title>Artboard 41</title><path d="M86.7,16.27H84.62c-13.13,0-22.68-3.59-31-11.65L52.21,3.21a3.17,3.17,0,0,0-4.42,0L46.34,4.62c-8.28,8.05-17.83,11.65-31,11.65H13.3a3.17,3.17,0,0,0-3.17,3.17v2.08c0,2.23,0,4.55-.09,6.94C9.6,51.8,9,83.77,48.28,97.39h0a5.25,5.25,0,0,0,3.44,0h0C91,83.77,90.4,51.8,90,28.45c0-2.39-.09-4.71-.09-6.94V19.44A3.17,3.17,0,0,0,86.7,16.27ZM78.52,52.48H50V86.85C30.46,79.5,23.71,66.6,21.48,52.48H50V15.41h0c8.27,6.75,17.81,10.37,29.42,11.18q0,1,0,2.06C79.61,36.48,79.76,44.66,78.52,52.48Z"/></svg>