<?xml version="1.0" encoding="UTF-8" standalone="no"?>
<svg
   xmlns:dc="http://purl.org/dc/elements/1.1/"
   xmlns:cc="http://creativecommons.org/ns#"
   xmlns:rdf="http://www.w3.org/1999/02/22-rdf-syntax-ns#"
   xmlns:svg="http://www.w3.org/2000/svg"
   xmlns="http://www.w3.org/2000/svg"
   xmlns:sodipodi="http://sodipodi.sourceforge.net/DTD/sodipodi-0.dtd"
   xmlns:inkscape="http://www.inkscape.org/namespaces/inkscape"
   fill="#000000"
   version="1.1"
   x="0px"
   y="0px"
   viewBox="-6.46 -19 100 100"
   enable-background="new -6.46 -19 100 100"
   xml:space="preserve"
   id="svg10"
   sodipodi:docname="sound.svg"
   inkscape:version="0.92.1 r15371"><metadata
     id="metadata16"><rdf:RDF><cc:Work
         rdf:about=""><dc:format>image/svg+xml</dc:format><dc:type
           rdf:resource="http://purl.org/dc/dcmitype/StillImage" /></cc:Work></rdf:RDF></metadata><defs
     id="defs14" /><sodipodi:namedview
     pagecolor="#ffffff"
     bordercolor="#666666"
     borderopacity="1"
     objecttolerance="10"
     gridtolerance="10"
     guidetolerance="10"
     inkscape:pageopacity="0"
     inkscape:pageshadow="2"
     inkscape:window-width="1230"
     inkscape:window-height="887"
     id="namedview12"
     showgrid="false"
     inkscape:zoom="2.36"
     inkscape:cx="-18.419198"
     inkscape:cy="19.931685"
     inkscape:window-x="496"
     inkscape:window-y="65"
     inkscape:window-maximized="0"
     inkscape:current-layer="svg10" /><path
     d="M44.017,2.121L24.304,16.964H6.36c-2.341,0-4.242,1.898-4.242,4.24v18.728c0,2.34,1.9,4.24,4.242,4.24h17.119l20.538,15.464  V2.121z"
     id="path6" /><path
     d="M44.017,61.756c-0.451,0-0.901-0.143-1.276-0.424l-19.972-15.04H6.36c-3.507,0-6.36-2.853-6.36-6.36V21.205  c0-3.508,2.853-6.362,6.36-6.362h17.238L42.741,0.428c0.643-0.485,1.504-0.564,2.221-0.206c0.721,0.36,1.174,1.095,1.174,1.898  v57.516c0,0.805-0.453,1.54-1.174,1.897C44.663,61.684,44.339,61.756,44.017,61.756z M6.36,19.083c-1.168,0-2.12,0.952-2.12,2.122  v18.728c0,1.17,0.952,2.12,2.12,2.12h17.119c0.46,0,0.908,0.151,1.274,0.429l17.144,12.905V6.373L25.582,18.657  c-0.369,0.278-0.816,0.426-1.278,0.426H6.36z"
     id="path8" /><path
     inkscape:connector-curvature="0"
     id="path4"
     d="m 58.959264,19.819657 c -1.3,-2.2 -4.3,-2.7 -6.3,-1 l -0.3,0.2 c -1.4,1.2 -1.8,3.3 -0.9,4.9 1.1,2 1.8,4.3 1.8,6.8 0,2.5 -0.7,4.8 -1.8,6.8 -0.9,1.6 -0.5,3.7 0.9,4.9 l 0.3,0.2 c 1.9,1.7 5,1.3 6.3,-1 1.8,-3.2 2.9,-7 2.9,-11 0,-3.8 -1.1,-7.5 -2.9,-10.8 z" /><path
     inkscape:connector-curvature="0"
     id="path6-3"
     d="m 69.459264,9.9196572 c -1.4,-2 -4.3,-2.3 -6.1,-0.7 l -0.2,0.2 c -1.5,1.3999998 -1.8,3.6999998 -0.6,5.3999998 3.2,4.5 5,10.1 5,16 0,6 -1.9,11.5 -5,16 -1.2,1.7 -0.9,4 0.6,5.4 l 0.2,0.2 c 1.8,1.6 4.7,1.3 6.1,-0.7 4.2,-5.9 6.6,-13.1 6.6,-20.9 0,-7.8 -2.4,-15 -6.6,-20.8999998 z" /><path
     inkscape:connector-curvature="0"
     id="path8-6"
     d="m 79.959264,0.2196573 c -1.5,-1.9 -4.2,-2.2 -6,-0.6 l -0.3,0.2 c -1.6,1.4 -1.8,3.8 -0.5,5.5 5.4,7.0999997 8.5,15.8999997 8.5,25.3999997 0,9.5 -3.2,18.4 -8.5,25.4 -1.3,1.7 -1.1,4.1 0.5,5.5 l 0.3,0.2 c 1.8,1.6 4.5,1.3 6,-0.6 6.5,-8.5 10.3,-19.1 10.3,-30.6 0,-11.3 -3.8,-21.8999998 -10.3,-30.3999997 z" /></svg>