<?xml version="1.0" encoding="UTF-8" standalone="no"?>
<svg
   xmlns:dc="http://purl.org/dc/elements/1.1/"
   xmlns:cc="http://creativecommons.org/ns#"
   xmlns:rdf="http://www.w3.org/1999/02/22-rdf-syntax-ns#"
   xmlns:svg="http://www.w3.org/2000/svg"
   xmlns="http://www.w3.org/2000/svg"
   xmlns:sodipodi="http://sodipodi.sourceforge.net/DTD/sodipodi-0.dtd"
   xmlns:inkscape="http://www.inkscape.org/namespaces/inkscape"
   fill="#000000"
   version="1.1"
   x="0px"
   y="0px"
   viewBox="0 0 512 512"
   enable-background="new 0 0 512 512"
   xml:space="preserve"
   id="svg4"
   sodipodi:docname="wand_800082.svg"
   inkscape:export-filename="/home/alexandre/Software/speech-rec/player-react/src/img/wand.png"
   inkscape:export-xdpi="12"
   inkscape:export-ydpi="12"
   inkscape:version="0.92.1 r15371"><metadata
     id="metadata10"><rdf:RDF><cc:Work
         rdf:about=""><dc:format>image/svg+xml</dc:format><dc:type
           rdf:resource="http://purl.org/dc/dcmitype/StillImage" /></cc:Work></rdf:RDF></metadata><defs
     id="defs8" /><sodipodi:namedview
     pagecolor="#ffffff"
     bordercolor="#666666"
     borderopacity="1"
     objecttolerance="10"
     gridtolerance="10"
     guidetolerance="10"
     inkscape:pageopacity="0"
     inkscape:pageshadow="2"
     inkscape:window-width="1442"
     inkscape:window-height="750"
     id="namedview6"
     showgrid="false"
     inkscape:zoom="0.4609375"
     inkscape:cx="256"
     inkscape:cy="256"
     inkscape:window-x="0"
     inkscape:window-y="0"
     inkscape:window-maximized="0"
     inkscape:current-layer="svg4" /><path
     d="M507,193l-66.5-66.5l42.7-83.8c4.5-8.8-4.9-18.1-13.7-13.7l-83.8,42.7L319.1,5.1c-7-7-18.8-0.9-17.2,8.8l14.7,92.9  l-83.8,42.7c-8.8,4.5-6.7,17.6,3,19.1l61.9,9.8L9.4,466.8c-9.9,9.9-9.9,26,0,35.9c5,5,20.2,13.3,35.9,0l288.3-288.3l9.8,61.9  c1.5,9.7,14.6,11.8,19.1,3l42.7-83.8l92.9,14.7C507.9,211.7,513.9,199.9,507,193z"
     id="path2" /></svg>